<svg xmlns="http://www.w3.org/2000/svg"
    xmlns:xlink="http://www.w3.org/1999/xlink" width="200" zoomAndPan="magnify" viewBox="0 0 150 30.000001" height="40" preserveAspectRatio="xMidYMid meet" version="1.0">
    <defs>
        <g/>
    </defs>
    <path stroke-linecap="round" transform="matrix(0.897664, 0, 0, 0.897664, 20.618598, 17.055624)" fill="none" stroke-linejoin="round" d="M 9.898253 -0.00104328 L -0.00157141 4.951045 " stroke="#f1d17c" stroke-width="2" stroke-opacity="1" stroke-miterlimit="4"/>
    <path stroke-linecap="round" transform="matrix(0.897664, 0, 0, 0.897664, 4.369079, 17.055624)" fill="none" stroke-linejoin="round" d="M -0.00210763 -0.00104328 L 9.932529 4.964099 " stroke="#f1d17c" stroke-width="2" stroke-opacity="1" stroke-miterlimit="4"/>
    <path stroke-linecap="round" transform="matrix(0.897664, 0, 0, 0.897664, 16.93638, 6.283652)" fill="none" stroke-linejoin="round" d="M 0.00124801 12.999819 L 0.00124801 0.00167565 " stroke="#7253ed" stroke-width="2" stroke-opacity="1" stroke-miterlimit="4"/>
    <path stroke-linecap="round" transform="matrix(0.897664, 0, 0, 0.897664, -442.667735, -55.655185)" fill="none" stroke-linejoin="round" d="M 512.001247 93.000591 L 497.997891 85.998913 L 497.997891 63.00086 L 512.001247 69.001677 L 526.000251 63.00086 L 526.000251 85.998913 L 512.001247 93.000591 " stroke="#7253ed" stroke-width="2" stroke-opacity="1" stroke-miterlimit="4"/>
    <g fill="#7253ed" fill-opacity="1">
        <g transform="translate(33.238211, 21.048389)">
            <g>
                <path d="M 2.28125 5.3125 L 2.28125 -13.125 L 4.21875 -13.125 L 4.21875 -11.15625 L 4.46875 -11.109375 C 5.445312 -12.617188 6.878906 -13.375 8.765625 -13.375 C 9.867188 -13.375 10.828125 -13.125 11.640625 -12.625 C 12.453125 -12.125 13.082031 -11.363281 13.53125 -10.34375 C 13.988281 -9.320312 14.21875 -8.0625 14.21875 -6.5625 C 14.21875 -5.0625 13.976562 -3.800781 13.5 -2.78125 C 13.03125 -1.769531 12.375 -1.007812 11.53125 -0.5 C 10.6875 0 9.71875 0.25 8.625 0.25 C 7.738281 0.25 6.945312 0.0976562 6.25 -0.203125 C 5.5625 -0.515625 4.96875 -1.023438 4.46875 -1.734375 L 4.21875 -1.6875 L 4.21875 5.3125 Z M 8.203125 -1.484375 C 10.859375 -1.484375 12.1875 -3.175781 12.1875 -6.5625 C 12.1875 -9.945312 10.859375 -11.640625 8.203125 -11.640625 C 7.421875 -11.640625 6.734375 -11.457031 6.140625 -11.09375 C 5.546875 -10.738281 5.078125 -10.179688 4.734375 -9.421875 C 4.390625 -8.671875 4.21875 -7.71875 4.21875 -6.5625 C 4.21875 -5.40625 4.390625 -4.445312 4.734375 -3.6875 C 5.078125 -2.9375 5.546875 -2.378906 6.140625 -2.015625 C 6.734375 -1.660156 7.421875 -1.484375 8.203125 -1.484375 Z M 8.203125 -1.484375 "/>
            </g>
        </g>
    </g>
    <g fill="#7253ed" fill-opacity="1">
        <g transform="translate(47.070168, 21.048389)">
            <g>
                <path d="M 5.21875 0.25 C 4.289062 0.25 3.5625 -0.0078125 3.03125 -0.53125 C 2.5 -1.0625 2.234375 -1.851562 2.234375 -2.90625 L 2.234375 -18.40625 L 4.171875 -18.40625 L 4.171875 -3.03125 C 4.171875 -2.488281 4.273438 -2.09375 4.484375 -1.84375 C 4.703125 -1.601562 5.03125 -1.484375 5.46875 -1.484375 C 5.738281 -1.484375 6.015625 -1.53125 6.296875 -1.625 L 6.46875 -1.578125 L 6.6875 -0.046875 C 6.539062 0.046875 6.332031 0.117188 6.0625 0.171875 C 5.800781 0.222656 5.519531 0.25 5.21875 0.25 Z M 5.21875 0.25 "/>
            </g>
        </g>
    </g>
    <g fill="#7253ed" fill-opacity="1">
        <g transform="translate(52.381719, 21.048389)">
            <g>
                <path d="M 5.421875 0.25 C 4.117188 0.25 3.101562 -0.0820312 2.375 -0.75 C 1.65625 -1.425781 1.296875 -2.394531 1.296875 -3.65625 C 1.296875 -4.425781 1.457031 -5.078125 1.78125 -5.609375 C 2.101562 -6.148438 2.597656 -6.585938 3.265625 -6.921875 C 3.941406 -7.265625 4.828125 -7.53125 5.921875 -7.71875 C 6.867188 -7.875 7.585938 -8.050781 8.078125 -8.25 C 8.578125 -8.445312 8.910156 -8.664062 9.078125 -8.90625 C 9.253906 -9.15625 9.34375 -9.46875 9.34375 -9.84375 C 9.34375 -10.4375 9.132812 -10.890625 8.71875 -11.203125 C 8.3125 -11.523438 7.660156 -11.6875 6.765625 -11.6875 C 5.910156 -11.6875 5.179688 -11.519531 4.578125 -11.1875 C 3.972656 -10.863281 3.414062 -10.375 2.90625 -9.71875 L 2.671875 -9.71875 L 1.71875 -11.0625 C 2.269531 -11.769531 2.972656 -12.332031 3.828125 -12.75 C 4.691406 -13.164062 5.671875 -13.375 6.765625 -13.375 C 8.304688 -13.375 9.441406 -13.035156 10.171875 -12.359375 C 10.910156 -11.679688 11.28125 -10.742188 11.28125 -9.546875 L 11.28125 -2.578125 C 11.28125 -1.847656 11.59375 -1.484375 12.21875 -1.484375 C 12.414062 -1.484375 12.613281 -1.519531 12.8125 -1.59375 L 12.96875 -1.546875 L 13.203125 -0.203125 C 13.054688 -0.109375 12.863281 -0.0351562 12.625 0.015625 C 12.394531 0.0664062 12.15625 0.09375 11.90625 0.09375 C 11.1875 0.09375 10.640625 -0.0625 10.265625 -0.375 C 9.898438 -0.695312 9.664062 -1.164062 9.5625 -1.78125 L 9.3125 -1.8125 C 8.945312 -1.125 8.445312 -0.609375 7.8125 -0.265625 C 7.175781 0.078125 6.378906 0.25 5.421875 0.25 Z M 5.84375 -1.296875 C 6.570312 -1.296875 7.203125 -1.460938 7.734375 -1.796875 C 8.273438 -2.140625 8.6875 -2.613281 8.96875 -3.21875 C 9.257812 -3.832031 9.40625 -4.539062 9.40625 -5.34375 L 9.40625 -7.015625 L 9.171875 -7.0625 C 8.878906 -6.851562 8.519531 -6.675781 8.09375 -6.53125 C 7.675781 -6.394531 7.09375 -6.273438 6.34375 -6.171875 C 5.582031 -6.066406 4.976562 -5.90625 4.53125 -5.6875 C 4.082031 -5.476562 3.757812 -5.207031 3.5625 -4.875 C 3.375 -4.539062 3.28125 -4.132812 3.28125 -3.65625 C 3.28125 -2.882812 3.503906 -2.296875 3.953125 -1.890625 C 4.410156 -1.492188 5.039062 -1.296875 5.84375 -1.296875 Z M 5.84375 -1.296875 "/>
            </g>
        </g>
    </g>
    <g fill="#7253ed" fill-opacity="1">
        <g transform="translate(64.131178, 21.048389)">
            <g>
                <path d="M 3.265625 -15.65625 C 2.847656 -15.65625 2.507812 -15.785156 2.25 -16.046875 C 2 -16.304688 1.875 -16.632812 1.875 -17.03125 C 1.875 -17.425781 2 -17.753906 2.25 -18.015625 C 2.507812 -18.273438 2.847656 -18.40625 3.265625 -18.40625 C 3.671875 -18.40625 4.003906 -18.273438 4.265625 -18.015625 C 4.523438 -17.753906 4.65625 -17.425781 4.65625 -17.03125 C 4.65625 -16.632812 4.523438 -16.304688 4.265625 -16.046875 C 4.003906 -15.785156 3.671875 -15.65625 3.265625 -15.65625 Z M 2.28125 0 L 2.28125 -13.125 L 4.21875 -13.125 L 4.21875 0 Z M 2.28125 0 "/>
            </g>
        </g>
    </g>
    <g fill="#7253ed" fill-opacity="1">
        <g transform="translate(68.812035, 21.048389)">
            <g>
                <path d="M 2.28125 0 L 2.28125 -13.125 L 4.125 -13.125 L 4.125 -11.0625 L 4.375 -11.015625 C 4.8125 -11.773438 5.367188 -12.359375 6.046875 -12.765625 C 6.722656 -13.171875 7.550781 -13.375 8.53125 -13.375 C 10.113281 -13.375 11.257812 -12.972656 11.96875 -12.171875 C 12.675781 -11.367188 13.03125 -10.128906 13.03125 -8.453125 L 13.03125 0 L 11.09375 0 L 11.09375 -8.40625 C 11.09375 -9.195312 10.988281 -9.832031 10.78125 -10.3125 C 10.582031 -10.789062 10.269531 -11.140625 9.84375 -11.359375 C 9.425781 -11.578125 8.867188 -11.6875 8.171875 -11.6875 C 6.992188 -11.6875 6.039062 -11.296875 5.3125 -10.515625 C 4.582031 -9.734375 4.21875 -8.472656 4.21875 -6.734375 L 4.21875 0 Z M 2.28125 0 "/>
            </g>
        </g>
    </g>
    <g fill="#7253ed" fill-opacity="1">
        <g transform="translate(82.575969, 20.675675)">
            <g>
                <path d="M 5.546875 0.25 C 4.335938 0.25 3.414062 -0.0703125 2.78125 -0.71875 C 2.15625 -1.363281 1.84375 -2.351562 1.84375 -3.6875 L 1.84375 -18.71875 L 5.1875 -18.71875 L 5.1875 -3.8125 C 5.1875 -3 5.53125 -2.59375 6.21875 -2.59375 C 6.40625 -2.59375 6.609375 -2.625 6.828125 -2.6875 L 7 -2.640625 L 7.296875 -0.0625 C 7.109375 0.03125 6.863281 0.101562 6.5625 0.15625 C 6.257812 0.21875 5.921875 0.25 5.546875 0.25 Z M 5.546875 0.25 "/>
            </g>
        </g>
    </g>
    <g fill="#7253ed" fill-opacity="1">
        <g transform="translate(88.39382, 20.675675)">
            <g>
                <path d="M 5.203125 0.25 C 4.347656 0.25 3.601562 0.09375 2.96875 -0.21875 C 2.34375 -0.53125 1.859375 -0.988281 1.515625 -1.59375 C 1.179688 -2.207031 1.015625 -2.941406 1.015625 -3.796875 C 1.015625 -4.585938 1.179688 -5.25 1.515625 -5.78125 C 1.859375 -6.320312 2.382812 -6.765625 3.09375 -7.109375 C 3.8125 -7.453125 4.742188 -7.71875 5.890625 -7.90625 C 6.679688 -8.03125 7.285156 -8.171875 7.703125 -8.328125 C 8.117188 -8.484375 8.398438 -8.65625 8.546875 -8.84375 C 8.691406 -9.039062 8.765625 -9.289062 8.765625 -9.59375 C 8.765625 -10.019531 8.613281 -10.34375 8.3125 -10.5625 C 8.019531 -10.789062 7.523438 -10.90625 6.828125 -10.90625 C 6.085938 -10.90625 5.378906 -10.738281 4.703125 -10.40625 C 4.035156 -10.082031 3.457031 -9.648438 2.96875 -9.109375 L 2.71875 -9.109375 L 1.3125 -11.21875 C 2 -11.96875 2.828125 -12.550781 3.796875 -12.96875 C 4.773438 -13.394531 5.84375 -13.609375 7 -13.609375 C 8.769531 -13.609375 10.046875 -13.234375 10.828125 -12.484375 C 11.617188 -11.734375 12.015625 -10.664062 12.015625 -9.28125 L 12.015625 -3.484375 C 12.015625 -2.890625 12.28125 -2.59375 12.8125 -2.59375 C 13.007812 -2.59375 13.207031 -2.628906 13.40625 -2.703125 L 13.578125 -2.65625 L 13.8125 -0.3125 C 13.625 -0.195312 13.363281 -0.0976562 13.03125 -0.015625 C 12.707031 0.0546875 12.347656 0.09375 11.953125 0.09375 C 11.148438 0.09375 10.523438 -0.0546875 10.078125 -0.359375 C 9.628906 -0.671875 9.3125 -1.148438 9.125 -1.796875 L 8.859375 -1.828125 C 8.203125 -0.441406 6.984375 0.25 5.203125 0.25 Z M 6.265625 -2.25 C 7.046875 -2.25 7.664062 -2.507812 8.125 -3.03125 C 8.59375 -3.550781 8.828125 -4.273438 8.828125 -5.203125 L 8.828125 -6.5625 L 8.59375 -6.609375 C 8.394531 -6.453125 8.128906 -6.316406 7.796875 -6.203125 C 7.472656 -6.097656 7.003906 -5.992188 6.390625 -5.890625 C 5.660156 -5.765625 5.132812 -5.550781 4.8125 -5.25 C 4.5 -4.957031 4.34375 -4.539062 4.34375 -4 C 4.34375 -3.425781 4.507812 -2.988281 4.84375 -2.6875 C 5.1875 -2.394531 5.660156 -2.25 6.265625 -2.25 Z M 6.265625 -2.25 "/>
            </g>
        </g>
    </g>
    <g fill="#7253ed" fill-opacity="1">
        <g transform="translate(100.618266, 20.675675)">
            <g>
                <path d="M 1.921875 0 L 1.921875 -13.359375 L 5.140625 -13.359375 L 5.140625 -11.390625 L 5.40625 -11.328125 C 6.226562 -12.847656 7.570312 -13.609375 9.4375 -13.609375 C 10.976562 -13.609375 12.109375 -13.1875 12.828125 -12.34375 C 13.554688 -11.507812 13.921875 -10.289062 13.921875 -8.6875 L 13.921875 0 L 10.5625 0 L 10.5625 -8.265625 C 10.5625 -9.148438 10.382812 -9.789062 10.03125 -10.1875 C 9.675781 -10.582031 9.109375 -10.78125 8.328125 -10.78125 C 7.367188 -10.78125 6.617188 -10.46875 6.078125 -9.84375 C 5.546875 -9.21875 5.28125 -8.238281 5.28125 -6.90625 L 5.28125 0 Z M 1.921875 0 "/>
            </g>
        </g>
    </g>
    <g fill="#7253ed" fill-opacity="1">
        <g transform="translate(114.404997, 20.675675)">
            <g>
                <path d="M 6.921875 5.671875 C 4.722656 5.671875 3.097656 5.347656 2.046875 4.703125 C 0.992188 4.054688 0.46875 3.15625 0.46875 2 C 0.46875 1.289062 0.691406 0.710938 1.140625 0.265625 C 1.585938 -0.179688 2.234375 -0.476562 3.078125 -0.625 L 3.078125 -0.890625 C 2.617188 -1.160156 2.289062 -1.460938 2.09375 -1.796875 C 1.894531 -2.128906 1.796875 -2.519531 1.796875 -2.96875 C 1.796875 -4.039062 2.5 -4.765625 3.90625 -5.140625 L 3.90625 -5.390625 C 3.1875 -5.796875 2.644531 -6.300781 2.28125 -6.90625 C 1.914062 -7.519531 1.734375 -8.257812 1.734375 -9.125 C 1.734375 -10.019531 1.9375 -10.800781 2.34375 -11.46875 C 2.75 -12.144531 3.34375 -12.671875 4.125 -13.046875 C 4.914062 -13.421875 5.863281 -13.609375 6.96875 -13.609375 C 8.082031 -13.609375 8.96875 -13.414062 9.625 -13.03125 C 10.039062 -13.625 10.28125 -14.3125 10.34375 -15.09375 L 10.59375 -15.25 L 13 -14.65625 C 12.925781 -14.019531 12.738281 -13.484375 12.4375 -13.046875 C 12.144531 -12.617188 11.679688 -12.238281 11.046875 -11.90625 L 11.046875 -11.640625 C 11.804688 -10.972656 12.1875 -10.046875 12.1875 -8.859375 C 12.1875 -8.035156 11.976562 -7.296875 11.5625 -6.640625 C 11.15625 -5.992188 10.554688 -5.476562 9.765625 -5.09375 C 8.972656 -4.71875 8.039062 -4.53125 6.96875 -4.53125 L 6.453125 -4.546875 C 6.128906 -4.554688 5.90625 -4.5625 5.78125 -4.5625 C 5.46875 -4.5625 5.222656 -4.476562 5.046875 -4.3125 C 4.878906 -4.144531 4.796875 -3.9375 4.796875 -3.6875 C 4.796875 -3.394531 4.90625 -3.171875 5.125 -3.015625 C 5.351562 -2.859375 5.6875 -2.773438 6.125 -2.765625 L 9.125 -2.65625 C 12.070312 -2.5625 13.546875 -1.289062 13.546875 1.15625 C 13.546875 2.019531 13.328125 2.789062 12.890625 3.46875 C 12.453125 4.144531 11.738281 4.679688 10.75 5.078125 C 9.769531 5.472656 8.492188 5.671875 6.921875 5.671875 Z M 6.96875 -6.875 C 7.613281 -6.875 8.113281 -7.0625 8.46875 -7.4375 C 8.832031 -7.820312 9.015625 -8.363281 9.015625 -9.0625 C 9.015625 -9.769531 8.832031 -10.3125 8.46875 -10.6875 C 8.113281 -11.0625 7.613281 -11.25 6.96875 -11.25 C 6.3125 -11.25 5.804688 -11.0625 5.453125 -10.6875 C 5.097656 -10.3125 4.921875 -9.769531 4.921875 -9.0625 C 4.921875 -8.351562 5.097656 -7.8125 5.453125 -7.4375 C 5.804688 -7.0625 6.3125 -6.875 6.96875 -6.875 Z M 6.921875 3.234375 C 8.066406 3.234375 8.898438 3.070312 9.421875 2.75 C 9.941406 2.425781 10.203125 2.003906 10.203125 1.484375 C 10.203125 1.066406 10.066406 0.757812 9.796875 0.5625 C 9.535156 0.363281 9.113281 0.253906 8.53125 0.234375 L 5.890625 0.125 C 5.804688 0.125 5.722656 0.117188 5.640625 0.109375 C 5.566406 0.0976562 5.492188 0.09375 5.421875 0.09375 C 4.859375 0.09375 4.425781 0.210938 4.125 0.453125 C 3.832031 0.703125 3.6875 1.039062 3.6875 1.46875 C 3.6875 2.03125 3.957031 2.460938 4.5 2.765625 C 5.039062 3.078125 5.847656 3.234375 6.921875 3.234375 Z M 6.921875 3.234375 "/>
            </g>
        </g>
    </g>
</svg>